<mxfile host="app.diagrams.net" modified="2023-12-11T12:22:29.902Z" agent="Mozilla/5.0 (Windows NT 10.0; Win64; x64) AppleWebKit/537.36 (KHTML, like Gecko) Chrome/118.0.0.0 Safari/537.36 OPR/104.0.0.0" etag="l9iPzJiZMDuuNfjiE3SD" version="22.1.7" type="device">
  <diagram name="Page-1" id="bUOyicd2tXdx2NUEZt6v">
    <mxGraphModel dx="1521" dy="838" grid="1" gridSize="10" guides="1" tooltips="1" connect="1" arrows="1" fold="1" page="1" pageScale="1" pageWidth="1654" pageHeight="1169" math="0" shadow="0">
      <root>
        <mxCell id="0" />
        <mxCell id="1" parent="0" />
        <mxCell id="RsZegslkGQRmALC3ntK3-1" value="&lt;font color=&quot;#000000&quot;&gt;&lt;span style=&quot;font-size: 21px;&quot;&gt;Home/Home Edit&lt;/span&gt;&lt;/font&gt;" style="ellipse;whiteSpace=wrap;html=1;fillColor=#82a276;strokeColor=#3A5431;fontColor=#ffffff;" vertex="1" parent="1">
          <mxGeometry x="650" y="460" width="190" height="80" as="geometry" />
        </mxCell>
        <mxCell id="RsZegslkGQRmALC3ntK3-2" value="&lt;font color=&quot;#000000&quot;&gt;&lt;span style=&quot;font-size: 21px;&quot;&gt;Login/Register&lt;/span&gt;&lt;/font&gt;" style="ellipse;whiteSpace=wrap;html=1;fillColor=#82a276;strokeColor=#3A5431;fontColor=#ffffff;" vertex="1" parent="1">
          <mxGeometry x="950" y="470" width="170" height="80" as="geometry" />
        </mxCell>
        <mxCell id="RsZegslkGQRmALC3ntK3-3" value="&lt;font color=&quot;#000000&quot;&gt;&lt;span style=&quot;font-size: 21px;&quot;&gt;Event i/Tickets Edit&lt;/span&gt;&lt;/font&gt;" style="ellipse;whiteSpace=wrap;html=1;fillColor=#82a276;strokeColor=#3A5431;fontColor=#ffffff;" vertex="1" parent="1">
          <mxGeometry x="640" y="700" width="210" height="80" as="geometry" />
        </mxCell>
        <mxCell id="RsZegslkGQRmALC3ntK3-4" value="&lt;font color=&quot;#000000&quot;&gt;&lt;span style=&quot;font-size: 21px;&quot;&gt;Edit account&lt;/span&gt;&lt;/font&gt;" style="ellipse;whiteSpace=wrap;html=1;fillColor=#82a276;strokeColor=#3A5431;fontColor=#ffffff;" vertex="1" parent="1">
          <mxGeometry x="1130" y="710" width="90" height="80" as="geometry" />
        </mxCell>
        <mxCell id="RsZegslkGQRmALC3ntK3-8" value="&lt;font color=&quot;#000000&quot;&gt;&lt;span style=&quot;font-size: 21px;&quot;&gt;Basket&lt;/span&gt;&lt;/font&gt;" style="ellipse;whiteSpace=wrap;html=1;fillColor=#82a276;strokeColor=#3A5431;fontColor=#ffffff;" vertex="1" parent="1">
          <mxGeometry x="370" y="610" width="90" height="80" as="geometry" />
        </mxCell>
        <mxCell id="RsZegslkGQRmALC3ntK3-9" value="&lt;font color=&quot;#000000&quot;&gt;&lt;span style=&quot;font-size: 21px;&quot;&gt;Order Details&lt;/span&gt;&lt;/font&gt;" style="ellipse;whiteSpace=wrap;html=1;fillColor=#82a276;strokeColor=#3A5431;fontColor=#ffffff;" vertex="1" parent="1">
          <mxGeometry x="370" y="490" width="90" height="80" as="geometry" />
        </mxCell>
        <mxCell id="RsZegslkGQRmALC3ntK3-10" value="&lt;font color=&quot;#000000&quot;&gt;&lt;span style=&quot;font-size: 21px;&quot;&gt;Receipt&lt;/span&gt;&lt;/font&gt;" style="ellipse;whiteSpace=wrap;html=1;fillColor=#82a276;strokeColor=#3A5431;fontColor=#ffffff;" vertex="1" parent="1">
          <mxGeometry x="370" y="370" width="90" height="80" as="geometry" />
        </mxCell>
        <mxCell id="RsZegslkGQRmALC3ntK3-12" value="&lt;font color=&quot;#000000&quot;&gt;&lt;span style=&quot;font-size: 21px;&quot;&gt;Orders&lt;/span&gt;&lt;/font&gt;" style="ellipse;whiteSpace=wrap;html=1;fillColor=#82a276;strokeColor=#3A5431;fontColor=#ffffff;" vertex="1" parent="1">
          <mxGeometry x="700" y="280" width="90" height="80" as="geometry" />
        </mxCell>
        <mxCell id="RsZegslkGQRmALC3ntK3-13" value="&lt;font color=&quot;#000000&quot;&gt;&lt;span style=&quot;font-size: 21px;&quot;&gt;Event Form&lt;/span&gt;&lt;/font&gt;" style="ellipse;whiteSpace=wrap;html=1;fillColor=#82a276;strokeColor=#3A5431;fontColor=#ffffff;" vertex="1" parent="1">
          <mxGeometry x="540" y="280" width="90" height="80" as="geometry" />
        </mxCell>
        <mxCell id="RsZegslkGQRmALC3ntK3-14" value="&lt;font color=&quot;#000000&quot;&gt;&lt;span style=&quot;font-size: 21px;&quot;&gt;Ticket Form&lt;/span&gt;&lt;/font&gt;" style="ellipse;whiteSpace=wrap;html=1;fillColor=#82a276;strokeColor=#3A5431;fontColor=#ffffff;" vertex="1" parent="1">
          <mxGeometry x="700" y="870" width="90" height="80" as="geometry" />
        </mxCell>
        <mxCell id="RsZegslkGQRmALC3ntK3-15" value="&lt;font color=&quot;#000000&quot;&gt;&lt;span style=&quot;font-size: 21px;&quot;&gt;Discount&lt;br&gt;Code Form&lt;/span&gt;&lt;/font&gt;" style="ellipse;whiteSpace=wrap;html=1;fillColor=#82a276;strokeColor=#3A5431;fontColor=#ffffff;" vertex="1" parent="1">
          <mxGeometry x="340" y="870" width="150" height="80" as="geometry" />
        </mxCell>
        <mxCell id="RsZegslkGQRmALC3ntK3-36" value="" style="endArrow=classic;html=1;rounded=0;" edge="1" parent="1" source="RsZegslkGQRmALC3ntK3-1" target="RsZegslkGQRmALC3ntK3-3">
          <mxGeometry width="50" height="50" relative="1" as="geometry">
            <mxPoint x="500" y="660" as="sourcePoint" />
            <mxPoint x="550" y="610" as="targetPoint" />
          </mxGeometry>
        </mxCell>
        <mxCell id="RsZegslkGQRmALC3ntK3-37" value="" style="endArrow=classic;html=1;rounded=0;" edge="1" parent="1" source="RsZegslkGQRmALC3ntK3-3" target="RsZegslkGQRmALC3ntK3-1">
          <mxGeometry width="50" height="50" relative="1" as="geometry">
            <mxPoint x="720" y="610" as="sourcePoint" />
            <mxPoint x="770" y="560" as="targetPoint" />
          </mxGeometry>
        </mxCell>
        <mxCell id="RsZegslkGQRmALC3ntK3-38" value="" style="endArrow=classic;startArrow=classic;html=1;rounded=0;" edge="1" parent="1" source="RsZegslkGQRmALC3ntK3-3" target="RsZegslkGQRmALC3ntK3-2">
          <mxGeometry width="50" height="50" relative="1" as="geometry">
            <mxPoint x="860" y="630" as="sourcePoint" />
            <mxPoint x="910" y="580" as="targetPoint" />
          </mxGeometry>
        </mxCell>
        <mxCell id="RsZegslkGQRmALC3ntK3-39" value="" style="endArrow=classic;startArrow=classic;html=1;rounded=0;" edge="1" parent="1" source="RsZegslkGQRmALC3ntK3-1" target="RsZegslkGQRmALC3ntK3-2">
          <mxGeometry width="50" height="50" relative="1" as="geometry">
            <mxPoint x="630" y="490" as="sourcePoint" />
            <mxPoint x="680" y="440" as="targetPoint" />
          </mxGeometry>
        </mxCell>
        <mxCell id="RsZegslkGQRmALC3ntK3-40" value="" style="endArrow=classic;startArrow=classic;html=1;rounded=0;" edge="1" parent="1" source="RsZegslkGQRmALC3ntK3-3" target="RsZegslkGQRmALC3ntK3-8">
          <mxGeometry width="50" height="50" relative="1" as="geometry">
            <mxPoint x="720" y="810" as="sourcePoint" />
            <mxPoint x="770" y="760" as="targetPoint" />
          </mxGeometry>
        </mxCell>
        <mxCell id="RsZegslkGQRmALC3ntK3-41" value="" style="endArrow=classic;startArrow=classic;html=1;rounded=0;" edge="1" parent="1" source="RsZegslkGQRmALC3ntK3-1" target="RsZegslkGQRmALC3ntK3-8">
          <mxGeometry width="50" height="50" relative="1" as="geometry">
            <mxPoint x="620" y="780" as="sourcePoint" />
            <mxPoint x="670" y="730" as="targetPoint" />
            <Array as="points">
              <mxPoint x="580" y="650" />
            </Array>
          </mxGeometry>
        </mxCell>
        <mxCell id="RsZegslkGQRmALC3ntK3-43" value="" style="endArrow=classic;startArrow=classic;html=1;rounded=0;" edge="1" parent="1" source="RsZegslkGQRmALC3ntK3-1" target="RsZegslkGQRmALC3ntK3-12">
          <mxGeometry width="50" height="50" relative="1" as="geometry">
            <mxPoint x="870" y="760" as="sourcePoint" />
            <mxPoint x="920" y="710" as="targetPoint" />
          </mxGeometry>
        </mxCell>
        <mxCell id="RsZegslkGQRmALC3ntK3-44" value="" style="endArrow=classic;startArrow=classic;html=1;rounded=0;" edge="1" parent="1" source="RsZegslkGQRmALC3ntK3-1" target="RsZegslkGQRmALC3ntK3-13">
          <mxGeometry width="50" height="50" relative="1" as="geometry">
            <mxPoint x="770" y="800" as="sourcePoint" />
            <mxPoint x="820" y="750" as="targetPoint" />
          </mxGeometry>
        </mxCell>
        <mxCell id="RsZegslkGQRmALC3ntK3-45" value="" style="endArrow=classic;startArrow=classic;html=1;rounded=0;" edge="1" parent="1" source="RsZegslkGQRmALC3ntK3-14" target="RsZegslkGQRmALC3ntK3-3">
          <mxGeometry width="50" height="50" relative="1" as="geometry">
            <mxPoint x="600" y="880" as="sourcePoint" />
            <mxPoint x="650" y="830" as="targetPoint" />
          </mxGeometry>
        </mxCell>
        <mxCell id="RsZegslkGQRmALC3ntK3-47" value="" style="endArrow=classic;startArrow=classic;html=1;rounded=0;" edge="1" parent="1" source="RsZegslkGQRmALC3ntK3-15" target="RsZegslkGQRmALC3ntK3-14">
          <mxGeometry width="50" height="50" relative="1" as="geometry">
            <mxPoint x="410" y="920" as="sourcePoint" />
            <mxPoint x="460" y="870" as="targetPoint" />
          </mxGeometry>
        </mxCell>
        <mxCell id="RsZegslkGQRmALC3ntK3-48" value="" style="endArrow=classic;html=1;rounded=0;" edge="1" parent="1" source="RsZegslkGQRmALC3ntK3-15" target="RsZegslkGQRmALC3ntK3-3">
          <mxGeometry width="50" height="50" relative="1" as="geometry">
            <mxPoint x="420" y="760" as="sourcePoint" />
            <mxPoint x="470" y="710" as="targetPoint" />
          </mxGeometry>
        </mxCell>
        <mxCell id="RsZegslkGQRmALC3ntK3-49" value="" style="endArrow=classic;html=1;rounded=0;" edge="1" parent="1" source="RsZegslkGQRmALC3ntK3-8" target="RsZegslkGQRmALC3ntK3-9">
          <mxGeometry width="50" height="50" relative="1" as="geometry">
            <mxPoint x="440" y="670" as="sourcePoint" />
            <mxPoint x="490" y="620" as="targetPoint" />
          </mxGeometry>
        </mxCell>
        <mxCell id="RsZegslkGQRmALC3ntK3-50" value="" style="endArrow=classic;html=1;rounded=0;" edge="1" parent="1" source="RsZegslkGQRmALC3ntK3-9" target="RsZegslkGQRmALC3ntK3-10">
          <mxGeometry width="50" height="50" relative="1" as="geometry">
            <mxPoint x="430" y="700" as="sourcePoint" />
            <mxPoint x="480" y="650" as="targetPoint" />
          </mxGeometry>
        </mxCell>
        <mxCell id="RsZegslkGQRmALC3ntK3-51" value="" style="endArrow=classic;html=1;rounded=0;" edge="1" parent="1" source="RsZegslkGQRmALC3ntK3-10" target="RsZegslkGQRmALC3ntK3-1">
          <mxGeometry width="50" height="50" relative="1" as="geometry">
            <mxPoint x="449.99799486863424" y="581.8057289467588" as="sourcePoint" />
            <mxPoint x="471.63" y="520" as="targetPoint" />
            <Array as="points">
              <mxPoint x="580" y="410" />
            </Array>
          </mxGeometry>
        </mxCell>
        <mxCell id="RsZegslkGQRmALC3ntK3-52" value="" style="endArrow=classic;html=1;rounded=0;" edge="1" parent="1" source="RsZegslkGQRmALC3ntK3-3" target="RsZegslkGQRmALC3ntK3-4">
          <mxGeometry width="50" height="50" relative="1" as="geometry">
            <mxPoint x="880" y="860" as="sourcePoint" />
            <mxPoint x="930" y="810" as="targetPoint" />
          </mxGeometry>
        </mxCell>
        <mxCell id="RsZegslkGQRmALC3ntK3-53" value="" style="endArrow=classic;html=1;rounded=0;" edge="1" parent="1" source="RsZegslkGQRmALC3ntK3-12" target="RsZegslkGQRmALC3ntK3-4">
          <mxGeometry width="50" height="50" relative="1" as="geometry">
            <mxPoint x="766" y="817" as="sourcePoint" />
            <mxPoint x="980" y="880" as="targetPoint" />
            <Array as="points">
              <mxPoint x="1175" y="320" />
            </Array>
          </mxGeometry>
        </mxCell>
        <mxCell id="RsZegslkGQRmALC3ntK3-55" value="" style="endArrow=classic;startArrow=classic;html=1;rounded=0;" edge="1" parent="1" source="RsZegslkGQRmALC3ntK3-4" target="RsZegslkGQRmALC3ntK3-1">
          <mxGeometry width="50" height="50" relative="1" as="geometry">
            <mxPoint x="840" y="990" as="sourcePoint" />
            <mxPoint x="890" y="940" as="targetPoint" />
            <Array as="points">
              <mxPoint x="1175" y="390" />
              <mxPoint x="1110" y="390" />
            </Array>
          </mxGeometry>
        </mxCell>
      </root>
    </mxGraphModel>
  </diagram>
</mxfile>
